<svg xmlns="http://www.w3.org/2000/svg" width="98.704" height="151.174" viewBox="0 0 98.704 151.174">
  <g id="Group_36770" data-name="Group 36770" transform="translate(-623.946 -296.233)">
    <rect id="Rectangle_10840" data-name="Rectangle 10840" width="3.316" height="3.346" rx="1.658" transform="translate(631.709 400.503)" fill="#1a2e51"/>
    <rect id="Rectangle_10841" data-name="Rectangle 10841" width="3.316" height="3.346" rx="1.658" transform="translate(637.442 400.503)" fill="#1a2e51"/>
    <path id="Path_96445" data-name="Path 96445" d="M646.408,622.705a6.947,6.947,0,0,0-5.144,2.049,7.17,7.17,0,0,0-2.034,5.277,7.387,7.387,0,0,0,2.019,5.313,7.368,7.368,0,0,0,10.3.03,7.3,7.3,0,0,0,1.975-5.225,7.42,7.42,0,0,0-2-5.35A6.776,6.776,0,0,0,646.408,622.705Zm2.675,10.509a3.181,3.181,0,0,1-2.587,1.194,3.391,3.391,0,0,1-2.7-1.268,4.682,4.682,0,0,1-1.076-3.14,4.781,4.781,0,0,1,.965-3.08,3.156,3.156,0,0,1,2.6-1.209,3.385,3.385,0,0,1,2.727,1.253,4.8,4.8,0,0,1,1.047,3.183A4.673,4.673,0,0,1,649.083,633.214Z" transform="translate(-10.116 -216.071)" fill="#1a2e51"/>
    <path id="Path_96446" data-name="Path 96446" d="M691.681,637.341q0,4.274-4.2,4.274v2.9q3.92,0,5.749-1.828t1.828-5.867V625.8h-3.376Z" transform="translate(-42.049 -218.119)" fill="#1a2e51"/>
    <rect id="Rectangle_10842" data-name="Rectangle 10842" width="3.316" height="3.361" rx="1.658" transform="translate(649.661 401.549)" fill="#1a2e51"/>
    <path id="Path_96447" data-name="Path 96447" d="M725.993,624.794a4.615,4.615,0,0,1-2.594-.516q-.958-.692-.958-2.9V608.757H719.08V622.73a5.906,5.906,0,0,0,1.209,3.936,4.588,4.588,0,0,0,3.744,1.562h2.9v-3.434Z" transform="translate(-62.963 -206.839)" fill="#1a2e51"/>
    <rect id="Rectangle_10843" data-name="Rectangle 10843" width="4.923" height="3.434" transform="translate(665.035 417.954)" fill="#1a2e51"/>
    <rect id="Rectangle_10844" data-name="Rectangle 10844" width="1.061" height="3.434" transform="translate(663.973 417.954)" fill="#1a2e51"/>
    <rect id="Rectangle_10845" data-name="Rectangle 10845" width="5.291" height="3.434" transform="translate(670.65 417.954)" fill="#1a2e51"/>
    <rect id="Rectangle_10846" data-name="Rectangle 10846" width="0.693" height="3.434" transform="translate(669.957 417.954)" fill="#1a2e51"/>
    <rect id="Rectangle_10847" data-name="Rectangle 10847" width="5.291" height="3.434" transform="translate(676.634 417.954)" fill="#1a2e51"/>
    <rect id="Rectangle_10848" data-name="Rectangle 10848" width="0.693" height="3.434" transform="translate(675.942 417.954)" fill="#1a2e51"/>
    <rect id="Rectangle_10849" data-name="Rectangle 10849" width="5.115" height="3.434" transform="translate(682.619 417.954)" fill="#1a2e51"/>
    <rect id="Rectangle_10850" data-name="Rectangle 10850" width="0.693" height="3.434" transform="translate(681.926 417.954)" fill="#1a2e51"/>
    <rect id="Rectangle_10851" data-name="Rectangle 10851" width="3.316" height="3.39" rx="1.658" transform="translate(703.238 422.416)" fill="#1a2e51"/>
    <path id="Path_96448" data-name="Path 96448" d="M831.24,627.465a10.418,10.418,0,0,0-9.787-.811,11.618,11.618,0,0,0-3.228,2.137q1.179,1.783,1.636,2.653a7.174,7.174,0,0,1,2.712-1.9,6.52,6.52,0,0,1,2.535-.575,6.245,6.245,0,0,1,5.188,2.3,7.424,7.424,0,0,1,1.577,4.8H815.145v3.434H835.53V637.4Q835.53,630.3,831.24,627.465Z" transform="translate(-126.542 -218.119)" fill="#1a2e51"/>
    <rect id="Rectangle_10852" data-name="Rectangle 10852" width="0.87" height="3.434" transform="translate(687.733 417.954)" fill="#1a2e51"/>
    <path id="Path_96449" data-name="Path 96449" d="M884.341,673.831a1.18,1.18,0,0,1-.545-1.105,1.221,1.221,0,0,1,.287-.8.923.923,0,0,1,.744-.346.751.751,0,0,1,.84.663l1.091-.575a2.03,2.03,0,0,0-1.9-1.326,2.258,2.258,0,0,0-1.68.693,2.4,2.4,0,0,0-.678,1.754,5.669,5.669,0,0,0,.28,1.047H881.57v1.4h5.218v-1.4Z" transform="translate(-170.504 -247.596)" fill="#1a2e51"/>
    <rect id="Rectangle_10853" data-name="Rectangle 10853" width="3.361" height="19.5" transform="translate(712.083 401.888)" fill="#1a2e51"/>
    <path id="Path_96450" data-name="Path 96450" d="M641.137,698.27v4.349h5.173v1.817h-5.173v5.642h7.1V712H639V696.346h9.351v1.923Z" transform="translate(-9.963 -264.809)" fill="#e24255"/>
    <path id="Path_96451" data-name="Path 96451" d="M681.157,708.871h1.87a1.556,1.556,0,0,0,1.7,1.422,2.7,2.7,0,0,0,2.014-.615q.582-.614.583-3.436v-9.9h2.137v9.81a8.03,8.03,0,0,1-1.036,4.633q-1.037,1.427-3.687,1.427a3.536,3.536,0,0,1-2.506-.908A3.483,3.483,0,0,1,681.157,708.871Z" transform="translate(-37.864 -264.809)" fill="#e24255"/>
    <path id="Path_96452" data-name="Path 96452" d="M732.534,711.584l-1.079-3.3H725.63l-1.154,3.3h-2.394l6.359-15.87h.566l5.9,15.87Zm-3.911-11.766-2.426,6.893h4.649Z" transform="translate(-64.95 -264.391)" fill="#e24255"/>
    <path id="Path_96453" data-name="Path 96453" d="M773.973,712v-.534l6.733-13.2H774.08v-1.923h9.565v.534l-6.754,13.2h6.989V712Z" transform="translate(-99.293 -264.809)" fill="#e24255"/>
    <path id="Path_96454" data-name="Path 96454" d="M825.223,711.584l-1.079-3.3h-5.824l-1.154,3.3h-2.394l6.359-15.87h.567l5.9,15.87Zm-3.911-11.766-2.426,6.893h4.649Z" transform="translate(-126.295 -264.391)" fill="#e24255"/>
    <path id="Path_96455" data-name="Path 96455" d="M873.111,712v-7.566h-6.84V712h-2.137V696.346h2.137v6.273h6.84v-6.273h2.137V712Z" transform="translate(-158.965 -264.809)" fill="#e24255"/>
    <path id="Path_96456" data-name="Path 96456" d="M671.782,401.252l3.348-4.33-5.514-4.263-3.463,4.479,5.522,4.269C671.707,401.355,671.743,401.3,671.782,401.252Z" transform="translate(-27.934 -63.818)" fill="#4497ad"/>
    <path id="Path_96457" data-name="Path 96457" d="M690.988,415.907a2.014,2.014,0,0,1-.258.276l46.547,35.985,3.463-4.479-46.518-35.963Z" transform="translate(-44.2 -76.437)" fill="#5ccc8e"/>
    <path id="Path_96458" data-name="Path 96458" d="M711.228,511.3a5.25,5.25,0,0,1-3.439,4.5l1.641,1.269a5.249,5.249,0,0,1,3.487-4.461Z" transform="translate(-55.49 -142.337)" fill="#4497ad"/>
    <path id="Path_96459" data-name="Path 96459" d="M623.946,429.482l21.271,16.445a5.249,5.249,0,0,1,3.487-4.461l-16.816-13,5.042-6.522,45.818,35.422-5.042,6.522L664.46,453.646a5.249,5.249,0,0,1-3.439,4.5l17.7,13.685,11.968-15.481L635.914,414Z" transform="translate(0 -77.943)" fill="#4497ad"/>
    <path id="Path_96460" data-name="Path 96460" d="M698.662,505.638a3.2,3.2,0,1,0-3.03,1.206A3.2,3.2,0,0,0,698.662,505.638Z" transform="translate(-45.653 -135.178)" fill="#5ccc8e"/>
    <path id="Path_96461" data-name="Path 96461" d="M724.455,525.579a3.218,3.218,0,0,0-.575-4.494,3.17,3.17,0,0,0-1.354-.606,3.2,3.2,0,1,0,1.929,5.1Z" transform="translate(-62.724 -148.376)" fill="#5ccc8e"/>
    <path id="Path_96462" data-name="Path 96462" d="M866.133,396.095l-3.451,4.459-7.8-5.872h0l17.155,13.041,3.455-4.545Zm5.752,8.6-.438.582,0,.007-.365.471-.894-.692.042-.054.687-.888.851-1.1-1.051-.814-1.55,2-.007-.006-.031.04-2.972-2.3,2.167-2.8.1-.135.051-.066,1.055.817-.194.243-1.365,1.764,1.052.814,1.3-1.674.23-.3.029-.037,2.782,2.153,0,.005.039.03Z" transform="translate(-152.84 -65.157)" fill="#e24255"/>
    <path id="Path_96463" data-name="Path 96463" d="M740.6,414.516a41.7,41.7,0,0,1-3.118-4.828,3.487,3.487,0,0,0,.294-.549l-.508.656-43.816-33.873-4.272-3.243-1.927-1.464-3.421,4.425,54.452,42.1,4.183-5.411A19.761,19.761,0,0,1,740.6,414.516Z" transform="translate(-39.636 -49.627)" fill="#ea914e"/>
    <path id="Path_96464" data-name="Path 96464" d="M864.694,452.576l-1.253,1.621h0l1.253-1.621Z" transform="translate(-158.506 -103.474)" fill="#ea914e"/>
    <path id="Path_96465" data-name="Path 96465" d="M791.326,330.938l.015-.019-46.086-34.687-3.4,4.524,38.223,28.768,4.376-3.792Z" transform="translate(-78.033)" fill="#e24255"/>
    <path id="Path_96466" data-name="Path 96466" d="M866.133,388.672l-6.877-5.206-4.376,3.792,7.8,5.872Z" transform="translate(-152.84 -57.734)" fill="#e24255"/>
    <path id="Path_96467" data-name="Path 96467" d="M720.244,343.522l-13.084-10.115,4.131-5.344,6.289,4.862,3.436-4.5-10.741-8.3-11.057,14.3L716.782,348Z" transform="translate(-49.818 -15.81)" fill="#ea914e"/>
    <path id="Path_96468" data-name="Path 96468" d="M868.25,448.354l-1.1,1.428h0Z" transform="translate(-160.959 -100.679)" fill="#ea914e"/>
    <path id="Path_96469" data-name="Path 96469" d="M789.287,369.674l-3.436,4.5,28.6,22.107,4.207,3.815,3.735-4.831Z" transform="translate(-107.154 -48.606)" fill="#ea914e"/>
    <path id="Path_96470" data-name="Path 96470" d="M755.068,350.375a5.617,5.617,0,0,1,3.828-4.2l-1.943-1.5-3.436,4.5Z" transform="translate(-85.755 -32.062)" fill="#ea914e"/>
    <path id="Path_96471" data-name="Path 96471" d="M785.216,366.017a5.622,5.622,0,0,1-3.1,4.76l1.263.976,3.436-4.5Z" transform="translate(-104.683 -46.186)" fill="#ea914e"/>
    <path id="Path_96472" data-name="Path 96472" d="M778.64,355.967a3.4,3.4,0,0,0-1.085-.561l1.895,1.465A3.427,3.427,0,0,0,778.64,355.967Z" transform="translate(-101.664 -39.163)" fill="#e24255"/>
    <path id="Path_96473" data-name="Path 96473" d="M764.476,366.656a3.431,3.431,0,0,0,3.564,2.767c.08,0,.16-.016.24-.026l-3.833-2.963C764.457,366.508,764.462,366.582,764.476,366.656Z" transform="translate(-92.988 -46.462)" fill="#e24255"/>
    <path id="Path_96474" data-name="Path 96474" d="M764.346,358.14c0,.012,0,.021,0,.032a3.441,3.441,0,0,0,.031.656l3.833,2.963a3.432,3.432,0,0,0,2.494-5.228l-1.895-1.465a3.47,3.47,0,0,0-1.576-.114l-.018,0a3.433,3.433,0,0,0-2.869,3.152Z" transform="translate(-92.918 -38.856)" fill="#e24255"/>
    <path id="Path_96475" data-name="Path 96475" d="M854.95,460.411a5.253,5.253,0,0,0-4.8-3.041l-6.794,8.789h0l.187-.242,1.51-1.954a5.247,5.247,0,0,0,4.153,3.885l-1.156,1.5,0,0c3.038-3.79,8.7-11.176,8.7-11.176l-.037-.034-.8,1.039Z" transform="translate(-145.21 -106.646)" fill="#ea914e"/>
    <path id="Path_96476" data-name="Path 96476" d="M842.964,482.643l-.187.242a3.469,3.469,0,0,1-.294.549,41.7,41.7,0,0,0,3.118,4.828,19.757,19.757,0,0,0,1.868-2.19l0,0Z" transform="translate(-144.635 -123.373)" fill="#ea914e"/>
    <path id="Path_96477" data-name="Path 96477" d="M849.569,480.751a5.247,5.247,0,0,1-4.153-3.885l-1.51,1.954,4.507,3.426Z" transform="translate(-145.577 -119.549)" fill="#ea914e"/>
    <path id="Path_96478" data-name="Path 96478" d="M868.247,457.238,869.2,456l-4.507-3.427-1.253,1.621a5.253,5.253,0,0,1,4.8,3.041Z" transform="translate(-158.507 -103.473)" fill="#ea914e"/>
    <path id="Path_96479" data-name="Path 96479" d="M867.147,449.782l4.507,3.426.8-1.039-4.207-3.815Z" transform="translate(-160.959 -100.679)" fill="#ea914e"/>
  </g>
</svg>
